<svg xmlns="http://www.w3.org/2000/svg" viewBox="0 0 1280 720" role="img" aria-labelledby="title desc">
  <title id="title">AI WebGPU Lab multimodal desk fixture</title>
  <desc id="desc">Monitor with chart, black development board, orange notebook, blue mug, keyboard, and desk lamp.</desc>
  <defs>
    <linearGradient id="bg" x1="0" y1="0" x2="1" y2="1">
      <stop offset="0%" stop-color="#081018"/>
      <stop offset="55%" stop-color="#101a29"/>
      <stop offset="100%" stop-color="#05080d"/>
    </linearGradient>
    <linearGradient id="desk" x1="0" y1="0" x2="1" y2="0">
      <stop offset="0%" stop-color="#2a1d16"/>
      <stop offset="50%" stop-color="#433127"/>
      <stop offset="100%" stop-color="#2d2119"/>
    </linearGradient>
    <linearGradient id="monitor" x1="0" y1="0" x2="1" y2="1">
      <stop offset="0%" stop-color="#11263d"/>
      <stop offset="100%" stop-color="#07121d"/>
    </linearGradient>
  </defs>
  <rect width="1280" height="720" fill="url(#bg)"/>
  <rect y="470" width="1280" height="250" fill="url(#desk)"/>
  <rect x="0" y="440" width="1280" height="18" fill="#604736" opacity="0.82"/>
  <circle cx="150" cy="112" r="74" fill="#173047" opacity="0.56"/>
  <circle cx="1136" cy="126" r="88" fill="#1c283f" opacity="0.48"/>
  <circle cx="1070" cy="564" r="68" fill="#0c1420" opacity="0.34"/>
  <rect x="350" y="118" width="596" height="338" rx="18" fill="#0c1017" stroke="#2a3648" stroke-width="8"/>
  <rect x="382" y="150" width="532" height="270" rx="10" fill="url(#monitor)"/>
  <rect x="620" y="456" width="56" height="34" rx="8" fill="#1b2331"/>
  <rect x="548" y="490" width="200" height="18" rx="9" fill="#171f2d"/>
  <g opacity="0.94">
    <rect x="430" y="322" width="56" height="70" rx="8" fill="#60a5fa"/>
    <rect x="514" y="282" width="56" height="110" rx="8" fill="#34d399"/>
    <rect x="598" y="236" width="56" height="156" rx="8" fill="#f59e0b"/>
    <rect x="682" y="262" width="56" height="130" rx="8" fill="#f472b6"/>
    <rect x="766" y="206" width="56" height="186" rx="8" fill="#818cf8"/>
  </g>
  <path d="M414 354 C492 324, 560 342, 646 288 S796 206, 874 228" fill="none" stroke="#f8fafc" stroke-width="8" stroke-linecap="round"/>
  <circle cx="414" cy="354" r="7" fill="#f8fafc"/>
  <circle cx="646" cy="288" r="7" fill="#f8fafc"/>
  <circle cx="874" cy="228" r="7" fill="#f8fafc"/>
  <g transform="translate(150 250)">
    <rect x="0" y="120" width="260" height="140" rx="18" fill="#0d141f" stroke="#2b3646" stroke-width="6"/>
    <rect x="22" y="144" width="94" height="52" rx="8" fill="#111c2a"/>
    <circle cx="70" cy="170" r="16" fill="#60a5fa"/>
    <rect x="136" y="142" width="98" height="18" rx="6" fill="#34d399"/>
    <rect x="136" y="170" width="80" height="14" rx="6" fill="#5eead4" opacity="0.76"/>
    <rect x="28" y="214" width="204" height="20" rx="6" fill="#111c2a"/>
    <circle cx="36" cy="80" r="22" fill="#f59e0b"/>
    <rect x="26" y="0" width="20" height="86" rx="10" fill="#455468"/>
    <rect x="20" y="74" width="32" height="18" rx="9" fill="#64748b"/>
  </g>
  <g transform="translate(816 480)">
    <rect x="0" y="0" width="144" height="108" rx="12" fill="#f97316" stroke="#fdba74" stroke-width="4"/>
    <rect x="18" y="18" width="108" height="72" rx="8" fill="#fb923c" opacity="0.36"/>
  </g>
  <g transform="translate(1002 454)">
    <rect x="0" y="92" width="180" height="22" rx="11" fill="#1a2230"/>
    <g fill="#dbeafe" opacity="0.92">
      <rect x="8" y="12" width="164" height="18" rx="6"/>
      <rect x="0" y="40" width="180" height="18" rx="6"/>
      <rect x="8" y="68" width="164" height="18" rx="6"/>
    </g>
  </g>
  <g transform="translate(920 420)">
    <ellipse cx="50" cy="146" rx="56" ry="12" fill="#0b111a" opacity="0.5"/>
    <rect x="12" y="48" width="76" height="88" rx="18" fill="#38bdf8"/>
    <path d="M88 64 C118 64, 118 120, 90 120" fill="none" stroke="#c8f3ff" stroke-width="10" stroke-linecap="round"/>
    <rect x="24" y="32" width="52" height="24" rx="10" fill="#e0f2fe"/>
  </g>
  <g opacity="0.22" stroke="#e2e8f0" stroke-width="2">
    <path d="M108 502 H1176"/>
    <path d="M128 532 H1150"/>
    <path d="M152 562 H1124"/>
    <path d="M178 592 H1100"/>
  </g>
</svg>
